<?xml version="1.0" encoding="UTF-8" standalone="no"?><!DOCTYPE svg PUBLIC "-//W3C//DTD SVG 1.1//EN" "http://www.w3.org/Graphics/SVG/1.1/DTD/svg11.dtd"><svg width="100%" height="100%" viewBox="0 0 229 229" version="1.1" xmlns="http://www.w3.org/2000/svg" xmlns:xlink="http://www.w3.org/1999/xlink" xml:space="preserve" xmlns:serif="http://www.serif.com/" style="fill-rule:evenodd;clip-rule:evenodd;stroke-linecap:round;stroke-linejoin:round;"><g><g><g id="Layer0_0_FILL"><path d="M196.7,185.5l18.5,-43.3l-18.5,-43.3l-18.5,43.3l18.5,43.3m-63.9,-134.9l-18.5,43.3l18.5,43.3l18.5,-43.3l-18.5,-43.3m-82.1,91.6l18.5,43.3l18.5,-43.3l-18.5,-43.3l-18.5,43.3Z" style="fill-rule:nonzero;"/></g></g><g><path id="Layer0_0_1_STROKES" d="M33.8,185.5l-18.5,-43.3l18.5,-43.3m11.8,86.6l-18.5,-43.3l18.5,-43.3m42.1,43.3l-18.5,43.3l-18.5,-43.3l18.5,-43.3l18.5,43.3Zm-30.3,43.3l-18.5,-43.3l18.5,-43.3m104,86.6l-18.5,-43.3l18.5,-43.3m11.8,86.6l-18.5,-43.3l18.5,-43.3m42,43.3l-18.5,43.3l-18.5,-43.3l18.5,-43.3l18.5,43.3Zm-63.9,-48.3l-18.5,43.3l-18.5,-43.3l18.5,-43.3l18.5,43.3Zm-30.3,43.3l-18.5,-43.3l18.5,-43.3m-11.8,86.6l-18.5,-43.3l18.5,-43.3m75.7,134.9l-18.4,-43.3l18.5,-43.3m-87.5,38.3l-18.5,-43.3l18.5,-43.3" style="fill:none;fill-rule:nonzero;stroke:#000;stroke-width:5px;"/></g></g></svg>